<svg xmlns="http://www.w3.org/2000/svg" viewBox="0 0 877.68 391.56"><defs><style>.cls-1{fill:#ff6695;}</style></defs><g id="Layer_2" data-name="Layer 2"><g id="Layer_1-2" data-name="Layer 1"><path d="M669.18,345.15c6,2.2,11-1.8,11-8.5-.1-6.3-3.2-12.2-10.2-19.2-14-13.9-32.9-23.3-57.9-28.8-9-1.9-13.3-2.2-31.9-2.2-32.2-.1-45.5,2.7-101,20.9-46.7,15.3-60.7,18.4-86.5,19.2-30.9,1-56.1-5.2-81.2-20.1-12.2-7.3-20.7-13.9-33.2-26.1-13.1-12.7-21.6-22.8-44.1-52.5-9-11.8-19.6-25.3-23.5-30-15.8-18.6-33.6-33-47.1-38.2l-5.9-2.3,13.5-1.2c24.9-2.1,43.4-7.2,59.6-16.4,11.3-6.3,24.6-19.8,30.1-30.4,13.8-26.7,9.8-55.4-10.4-76.2-5.7-5.8-19.4-15.1-27.7-18.8-23.1-10.2-54.7-15.3-88.6-14.2-36.5,1.2-65.9,8-91.2,20.9-15.6,7.9-29.9,20.1-36,30.8-9,15.5-9.3,34.9-.9,48.2,6.9,10.8,19,18.9,33.1,22.2,9.7,2.3,14,1.9,5-.5-13.7-3.5-23.5-11.4-29.1-23.4-5.4-11.3-5.7-24.1-.9-38.1,11.9-34.5,62.2-57.4,126.3-57.4,39.9,0,67.7,8.5,86.6,26.4,5.9,5.6,13.5,17.2,16,24.8,8.3,24.5,2.5,54.2-14.1,72.4-17.9,19.5-43.7,28.1-81.8,27.2l-13.5-.3-.5-56.8-.5-56.9-2.5,2.7c-6.2,6.6-17.9,12.4-28.5,14l-5,.7,3.9,1.3a20.65,20.65,0,0,1,6.2,3.6c5.4,5.1,5.4,5.3,5.4,96,0,57.2-.3,85.4-1.1,88.9-1.2,5.5-5.9,12-8.8,12a7.08,7.08,0,0,0-3.1,1c-1,.6,6.8,1,23,.9h24.5l-4.1-2a15.47,15.47,0,0,1-6.5-6.2l-2.4-4.2-.3-45.9-.3-45.8,3.7.7c9.5,1.7,25.1,12.7,36.5,25.6,9.6,10.8,15.7,18.8,33.4,43.4,8.7,12.1,20,27.2,25.1,33.6,39.4,49.1,80.4,74,130.4,79,27.4,2.7,56.2-2.1,96-16.1,75.6-26.6,87-29.4,121-29.5,17.6,0,22.1.3,32,2.3,21.3,4.3,40.7,13.8,52.7,25.7l5.5,5.5-2.6,3.1C662.58,335,663.88,343.25,669.18,345.15Z"/><path d="M873.68,256.35a17.7,17.7,0,0,1-10.4-11.4c-.7-2.6-1.1-16.6-1.1-43.2-.1-44.6-.7-51.7-5-60.6-5-10.1-13.5-16.5-26.6-20.1l-6.7-1.9,5.3-1.7c7.8-2.5,18.2-9.6,22.8-15.5,6.3-7.9,8.6-14.9,8.6-25.8-.1-8.5-.3-9.8-3.4-15.8a36.92,36.92,0,0,0-17.8-17.3c-5.1-2.4-6.9-2.7-16.7-2.7-10.2,0-11.4.2-17,3-7.4,3.7-10.5,7.9-10.5,14.3v4.6l2.8-2.7a49.47,49.47,0,0,1,9.7-5.9c6.6-3.1,7.6-3.3,18-3.3,9.6,0,11.6.3,15.9,2.4,10.3,5.1,15.2,11.7,16.2,21.9,1.2,11.5-4.7,24.2-14.9,32-11,8.4-20.6,11.2-37.8,11.2-24.5,0-46-7.2-101.4-33.8-28-13.4-41.1-19-53.5-23-24.2-7.7-44.6-6.7-64,3.4-10.5,5.4-18.6,12.4-24.1,21-2.9,4.5-4.8,6.4-6.3,6.4a6.42,6.42,0,0,0-5.5,9.3c3,6.6,13.6,2.2,11-4.6-2-5.2,8.7-18.7,20.9-26.6,19.3-12.5,43.7-14.3,70-5.2,11.9,4.1,19.2,7.3,45,19.6,27.8,13.3,45.5,21.1,58.5,26,11.7,4.4,31.2,9.5,36.2,9.5,4.1,0,3.6,1.5-.9,2.4-1.8.3-6.5,2.3-10.5,4.2l-7.3,3.6v22.3l3.6-7.3c4.6-9.2,12.9-17.1,21.1-20.3a36.25,36.25,0,0,1,27.1.6c11.3,5.1,16,13,16.9,29l.5,9-10.3,1.7c-19.1,3-39,9.8-52.6,18a63.14,63.14,0,0,0-18.89,18h0s-11,11.32-5.11,34.18c0,.16.07.31.11.46v0h0a22,22,0,0,0,1.19,3.28,34,34,0,0,0,22.2,18.4c11.5,3.2,29.9.7,40.8-5.6,6.3-3.5,15.5-11.7,19.5-17.2l2.7-3.7.7,3.9c.9,5.1,6.1,13.7,10.5,17.2,4,3.2,13.3,5.9,20,5.9l4.5-.1ZM842,194.75l-.3,27.6-3.4,6.3c-4.2,7.7-10.4,13.4-19.1,17.6-5.5,2.6-7.8,3.1-15,3.3-10.6.3-15.8-1.5-21.5-7.2-6.4-6.3-8.8-13.7-8.3-25,.3-7.7.9-10,3.7-15.6,3.7-7.5,11-15.3,19.6-21,9.2-6,27.6-12.2,39.3-13.2l5.3-.4Z"/><path d="M705.18,193.35l.44,39.37a23.31,23.31,0,0,0,2.69,10.6l.07.13c5,9.4,11.7,13.3,24.3,14l8,.4-4-1.9c-4.9-2.3-7.8-5.4-10.2-10.6-1.6-3.6-1.8-8.6-2.3-50.5-.5-45.5-.6-46.6-2.8-52.2-7.4-18.5-29.6-27.8-53-22.3-11.6,2.8-24.4,10.7-30.3,19-1.8,2.5-3.6,4.5-4.1,4.5s-.8-5.2-.8-11.6c0-10.6-.2-11.6-1.7-11.1a98.25,98.25,0,0,1-19,4.3c-6.3.6-6.5.7-4.1,2,1.6.8,3.3,3.1,4.2,5.6,1.5,3.8,1.6,10.5,1.4,59.3-.14,24.74-.23,38.38-.49,46.24h0c-.3,7.33-.8,8.83-1.69,10.66a20.74,20.74,0,0,1-5.4,6.3l-3.5,2.3h21.81c10.7,0,19.5-.2,19.5-.4a14.62,14.62,0,0,0-3.3-2.4,16.57,16.57,0,0,1-5.3-5.8c-1.8-3.7-1.9-6.5-1.9-49.9v-46l2.7-5.2c9.1-17.2,30.9-27,48.5-21.8,7.2,2.2,14.5,9,17.5,16.3C704.58,148.25,704.68,149.45,705.18,193.35Z"/><path d="M405.08,134.75c4.1,8,45.2,98.4,51.6,113.4,2,4.8,4,8.7,4.4,8.7s6.7-14.7,14-32.7c26.3-64.3,31.3-75.9,35.7-83s15.3-18.3,17.9-18.3a2.33,2.33,0,0,0,2-1c.4-.7-5.6-1-17.2-1h-17.8l2.7,2.3c3.3,2.7,5.8,8.4,5.8,13.3,0,7.8-3.8,18.3-26.7,73.4-3.6,8.5-6.9,16.6-7.5,18-.9,2.5-1,2.5-2.9-1.7-19-41.4-40.8-90.6-41.3-93.5-.8-4.2.4-7.3,3.8-10,2-1.7,1.3-1.8-16.9-1.8h-19l3.8,3.1C399.78,125.85,402.78,130.05,405.08,134.75Z"/><path class="cls-1" d="M531.88,61.45c7.7,4.5,17.4,13.8,19.4,18.6s2.4,1.4.9-6.9c-2.2-12.6-8.1-20.3-15.8-20.3-3.5,0-9.6,2.2-10.6,3.8C525.48,57.15,528.18,59.35,531.88,61.45Z"/><path class="cls-1" d="M557.18,83.35l2.6-4c4.3-6.5,9.4-11.3,17.7-16.6,4.2-2.7,7.7-5.2,7.7-5.5,0-1.4-7-4.4-10.3-4.4-9.4,0-15.1,8.4-17.1,25.5Z"/><path class="cls-1" d="M554.78,65.35c.6,1.7,1,1.4,2.5-2.1a45,45,0,0,1,4.8-8.4c4.5-6.2,4.2-10.2-1.7-22.7l-4.9-10.1-4.7,9c-2.8,5.5-4.9,10.9-5.2,13.7-.5,4.2-.1,5.2,4,11.6C552.08,60.25,554.48,64.25,554.78,65.35Z"/><path class="cls-1" d="M556.74,363.1c1.8.46,2.77,3.1,1.51,6.36l-6.88,17.81-7.68-24.17H541l1.1,3.43-6.2,20.67-7.07-18.05c-1.16-3.12-1.24-5.61.5-6h-8.06c1.8.46,3.63,2.79,5,6.36h0l8.46,21.59h.6l7-23.62,7.51,23.62h.61l8.29-21.59c1.36-3.52,4.19-5.9,6-6.36Z"/><path class="cls-1" d="M567.62,371.78a10.43,10.43,0,1,0,14,4.59A10.43,10.43,0,0,0,567.62,371.78Zm9.19,18.12c-3.83,1.94-8.93-.43-11.4-5.3s-1.37-10.39,2.45-12.33,8.93.43,11.4,5.3S580.63,388,576.81,389.9Z"/><path class="cls-1" d="M614.19,384.69c-1.94-11.73-3.09-14-7.36-14-2.16,0-4.06,1.73-5.22,4.49-1-3.93-3.39-4.49-5.94-4.49a7.2,7.2,0,0,0-6,3.74v-3.26h-5.36c1.8.45,2.68,2.84,2.7,6.36v7.2c0,3.52-.9,5.91-2.7,6.36h8.06c-1.8-.45-2.68-2.84-2.7-6.36v-9.4c.76-1.54,2.61-3.59,5.11-3.59,3.74,0,4.58,3,4.58,7.88v5.11h0c0,3.52-.9,5.91-2.69,6.36h8c-1.79-.45-2.67-2.84-2.69-6.36h0v-5.11a21.42,21.42,0,0,0-.27-3.58c1-2.49,2.62-4.3,4.13-4.3,2.92,0,4.13,3.72,5.63,13,.57,3.66.05,5.91-1.75,6.36h8.06C616.06,390.6,614.75,388.24,614.19,384.69Z"/><path class="cls-1" d="M633,389.9c-3.14,1.6-7.15.28-9.85-2.95l10.15-12.41,1.47-1.81a10.44,10.44,0,1,0,1.69,15.13l-.76-.58A6.43,6.43,0,0,1,633,389.9Zm-11.4-5.3c-2.47-4.87-1.37-10.39,2.45-12.33,2.81-1.43,6.31-.53,8.94,2l-10.11,12.37A12.16,12.16,0,0,1,621.59,384.6Z"/><path class="cls-1" d="M656.67,384.69c-1.93-11.73-3.08-14-7.35-14-2.13,0-4.48,1.68-6,4.38v-3.9H638c1.8.45,2.68,2.84,2.7,6.36v7.2c0,3.52-.9,5.91-2.7,6.36h8.06c-1.8-.45-2.68-2.84-2.7-6.36V376.2c1.27-2.59,3.49-4.5,5-4.5,2.92,0,4.13,3.72,5.63,13,.57,3.66,0,5.91-1.75,6.36h8.05C658.55,390.6,657.24,388.24,656.67,384.69Z"/><path class="cls-1" d="M661.94,362.63a1.24,1.24,0,0,0-1.25,1.3l1,7.2h.55l1-7.2A1.24,1.24,0,0,0,661.94,362.63Z"/><path class="cls-1" d="M673.34,379.09c-5.42-1-6-5.6-3.13-7.15a7.25,7.25,0,0,1,6.08,0c3,1.21,3.26,2.47,2.62,3.68l2-2.21h0l.63-.68h0a12.06,12.06,0,0,0-6.82-2.08,10.41,10.41,0,0,0-4.73,1c-3.8,1.89-6.62,8.33,2.71,10,8.57,1.51,10.25,6.72,6.72,8.66-1.85,1-5,.81-7.72-.17-3-1.21-3.32-2.39-2.68-3.6l-1.25,1.37h0l-1.47,1.61h0c1.9,1.3,8.93,3.24,13.33,1.13C684.9,388.07,685.39,381.41,673.34,379.09Z"/><path class="cls-1" d="M733.52,363.1c1.8.46,2.77,3.1,1.51,6.36l-6.88,17.81-7.69-24.17H717.8l1.09,3.43L712.7,387.2l-7.07-18.05c-1.17-3.12-1.25-5.61.49-6h-8.06c1.8.46,3.63,2.79,5,6.36h0l8.45,21.59h.6l7-23.62,7.52,23.62h.6l8.29-21.59c1.36-3.52,4.2-5.9,6-6.36Z"/><path class="cls-1" d="M767.47,370.65c-6.43,0-9.69,4.67-11,9.49s-.34,9.51-4.78,10.57c-1.57.37-5.26-.53-8-3.76l10.15-12.41,1.47-1.81a10.44,10.44,0,1,0-3.9,18.58c5-1.23,5.52-6.19,6.79-11.05,1.23-4.69,3.07-9.06,8.74-9.06a3.39,3.39,0,0,1,3.38,2c1,3.31-3.52,5.16-5.65,5.94-5.13,1.89-7.33,4.63-6.16,8.47s7.52,5.37,12.72,1.91l2.59,1.49V379.58C773.86,371.59,770.77,370.65,767.47,370.65Zm-25.29,14c-2.47-4.87-1.37-10.39,2.45-12.33,2.81-1.43,6.31-.53,9,2l-10.12,12.37A12.16,12.16,0,0,1,742.18,384.6Zm29,4.45c-3.81,2.77-9,1.47-10.26-2.27-.77-2.34.26-5.8,4.08-7.2,1.7-.63,5.71-2.28,5.84-4.78a25,25,0,0,1,.34,4.78Z"/><path class="cls-1" d="M784.44,371.78a9.27,9.27,0,0,0-2.19,1.72v-2.37h-5.36c1.76.44,2.65,2.75,2.69,6.17v7.39c0,3.52-.89,5.91-2.69,6.36H785c-1.8-.45-2.68-2.84-2.7-6.36v-7.85c.15-2,.69-3.65,2.44-4.57a4.73,4.73,0,0,1,4.77.26,3,3,0,0,1,1.61,3.25c.72-.93,2.4-3,2.4-3A7.3,7.3,0,0,0,784.44,371.78Z"/><path class="cls-1" d="M456.73,377.1a295.84,295.84,0,0,0,49.36,0A295.84,295.84,0,0,0,456.73,377.1Z"/><path class="cls-1" d="M806.68,377.1a295.84,295.84,0,0,0,49.36,0A295.84,295.84,0,0,0,806.68,377.1Z"/><path d="M278.3,233.49c.08.34.17.69.27,1s.1.4.16.61l0,0a45.91,45.91,0,0,0,2.2,5c4.8,9.8,12.4,15.3,24.7,18,4.8,1.1,17.4.6,23.4-.9,11.9-3,24.7-11.2,31.7-20.4l3.9-5.1,1.7,5.3c4.6,13.3,15.3,20.9,29.2,20.7,4.9-.1,5-.1,2.1-1.1a17,17,0,0,1-10.1-8.5c-1.7-3.5-1.9-7.5-2.5-49.8-.6-51.3-.6-51.4-7.7-61.5-13-18.8-46.1-23.7-72.2-10.7l-8.5,4.2-.2,11-.3,11,2.6-5c8.5-16.5,20.3-24.5,36.2-24.5,19.2,0,30.2,12.4,30.2,34.1v6.8l-5.7.6c-13.1,1.5-29.8,6.2-43.8,12.3-16.51,7.14-28.15,17-34.16,28.64C278.73,209.66,274.68,219,278.3,233.49ZM340.78,172c8.3-2.8,22.8-5.4,23.9-4.3.3.3.5,12.1.5,26.3,0,23.8-.2,26.3-2.1,31.5-2.8,7.5-12.4,17.4-20.5,21.1-4.7,2.1-7.7,2.7-14.4,3-9.5.3-13.4-.6-19.1-4.4-11.9-7.9-15.5-27.5-7.8-43.2C307.88,188.55,321,178.55,340.78,172Z"/><path d="M577.58,258l-3.5-2.3a20.74,20.74,0,0,1-5.4-6.3c-.89-1.83-1.39-3.33-1.69-10.66-.35-8.24-.45-23.86-.61-55.64-.2-54.9-.5-62.3-1.8-61.8-3.9,1.5-13.9,3.7-19.5,4.3-5,.5-5.9.8-4.3,1.5a13,13,0,0,1,4,4.1c1.8,3.1,1.9,5.7,1.9,59.2,0,41.7-.06,52.73-1,57.17a11.44,11.44,0,0,1-.73,1.83,21.09,21.09,0,0,1-4.61,5.67,8.09,8.09,0,0,0-1.75,1.26L536.08,258h19.7v-.12l2.1,0v.1Z"/></g></g></svg>