<?xml version="1.0" encoding="UTF-8"?>
<svg version="1.1" xmlns="http://www.w3.org/2000/svg" width="652" height="164">
<path d="M0 0 C215.16 0 430.32 0 652 0 C652 54.12 652 108.24 652 164 C436.84 164 221.68 164 0 164 C0 109.88 0 55.76 0 0 Z " fill="#FEFEFE" transform="translate(0,0)"/>
<path d="M0 0 C17.30257648 0.06251922 17.30257648 0.06251922 22.671875 5.3125 C27.85974468 11.62094953 28.93670529 16.35789282 28.83984375 24.4296875 C28.27901679 30.13274472 25.88092747 34.34195336 21.625 38.125 C16.97538526 41.35126329 13.47933106 42.50579498 7.82421875 42.4453125 C6.22416992 42.43564453 6.22416992 42.43564453 4.59179688 42.42578125 C3.48900391 42.40902344 2.38621094 42.39226562 1.25 42.375 C0.12787109 42.36597656 -0.99425781 42.35695312 -2.15039062 42.34765625 C-4.91297909 42.32414486 -7.67512932 42.29128155 -10.4375 42.25 C-10.4375 41.26 -10.4375 40.27 -10.4375 39.25 C-9.7775 39.25 -9.1175 39.25 -8.4375 39.25 C-8.55575365 34.32022981 -8.68000242 29.39066104 -8.80981445 24.46118164 C-8.85313167 22.78414013 -8.89480907 21.10705542 -8.93481445 19.42993164 C-8.99259485 17.01956159 -9.0562668 14.6094083 -9.12109375 12.19921875 C-9.13780624 11.44912033 -9.15451874 10.69902191 -9.17173767 9.92619324 C-9.26094233 6.79322008 -9.43986453 4.2429064 -10.4375 1.25 C-8.19036553 -0.99713447 -3.01268855 0.0083068 0 0 Z " fill="#0D0D0D" transform="translate(521.4375,56.75)"/>
<path d="M0 0 C3.68734775 -0.08776185 7.37442347 -0.14064603 11.0625 -0.1875 C12.62000977 -0.22520508 12.62000977 -0.22520508 14.20898438 -0.26367188 C21.96947491 -0.33758131 26.97965744 0.30097048 32.9375 5.625 C35.57002146 9.93276238 35.85619469 13.07232631 35 18 C33.625 20.875 33.625 20.875 32 23 C31.34 23.99 30.68 24.98 30 26 C30.79495861 28.89031918 30.79495861 28.89031918 32.25 31.9375 C32.93835938 33.49791016 32.93835938 33.49791016 33.640625 35.08984375 C34.72455296 37.4103217 35.85461642 39.70923284 37 42 C33.37 42 29.74 42 26 42 C26.33 40.68 26.66 39.36 27 38 C26.25872384 35.43649066 26.25872384 35.43649066 25.0625 32.875 C23 28.16271186 23 28.16271186 23 26 C18.05 26 13.1 26 8 26 C8.144375 28.083125 8.28875 30.16625 8.4375 32.3125 C8.51871094 33.48425781 8.59992188 34.65601563 8.68359375 35.86328125 C8.8867371 39.02590958 8.8867371 39.02590958 10 42 C6.37 42 2.74 42 -1 42 C-0.67 41.01 -0.34 40.02 0 39 C0.0850911 36.30343559 0.11590385 33.63351659 0.09765625 30.9375 C0.09553383 29.75595337 0.09553383 29.75595337 0.09336853 28.55053711 C0.08777441 26.0336527 0.07523324 23.51685744 0.0625 21 C0.05748333 19.3046888 0.05292071 17.60937619 0.04882812 15.9140625 C0.0406568 12.80857555 0.02997009 9.70312193 0.01586914 6.59765625 C0.00616853 4.39845253 0 2.19922511 0 0 Z " fill="#0A0A0A" transform="translate(456,57)"/>
<path d="M0 0 C3.63 0 7.26 0 11 0 C10.67 0.66 10.34 1.32 10 2 C9.76970044 4.37123246 9.58880058 6.74741943 9.4375 9.125 C9.293125 11.39375 9.14875 13.6625 9 16 C16.59 16 24.18 16 32 16 C31.855625 13.73125 31.71125 11.4625 31.5625 9.125 C31.44068359 7.21074219 31.44068359 7.21074219 31.31640625 5.2578125 C31.20793973 2.11699848 31.20793973 2.11699848 30 0 C33.63 0 37.26 0 41 0 C40.67 0.66 40.34 1.32 40 2 C39.90107064 4.66381299 39.86016353 7.30089028 39.8671875 9.96484375 C39.86623077 10.75395645 39.86527405 11.54306915 39.86428833 12.35609436 C39.86360734 14.02637817 39.86545602 15.69666462 39.86962891 17.36694336 C39.87497122 19.92372596 39.86968489 22.48033231 39.86328125 25.03710938 C39.86394219 26.65885455 39.86522367 28.28059962 39.8671875 29.90234375 C39.86516327 30.66804184 39.86313904 31.43373993 39.86105347 32.22264099 C39.8751395 35.41357733 39.98347862 37.95043585 41 41 C37.37 41 33.74 41 30 41 C30.33 39.68 30.66 38.36 31 37 C31.22117559 34.5861824 31.40572242 32.16885403 31.5625 29.75 C31.706875 27.5225 31.85125 25.295 32 23 C24.41 23 16.82 23 9 23 C9.144375 25.413125 9.28875 27.82625 9.4375 30.3125 C9.48060303 31.06829346 9.52370605 31.82408691 9.56811523 32.6027832 C9.75835191 35.60594873 10.04400348 38.13201045 11 41 C7.37 41 3.74 41 0 41 C0 27.47 0 13.94 0 0 Z " fill="#090909" transform="translate(341,58)"/>
<path d="M0 0 C1.37478516 0.01740234 1.37478516 0.01740234 2.77734375 0.03515625 C3.69644531 0.04417969 4.61554688 0.05320313 5.5625 0.0625 C6.27277344 0.07410156 6.98304688 0.08570313 7.71484375 0.09765625 C7.66287842 0.94312012 7.61091309 1.78858398 7.55737305 2.65966797 C7.73920568 6.6295396 8.75031896 9.42338802 10.234375 13.10546875 C10.49361252 13.75337372 10.75285004 14.40127869 11.01994324 15.06881714 C11.56736088 16.43052225 12.11980537 17.79021623 12.67700195 19.14794922 C13.52575827 21.21878791 14.35678267 23.29609103 15.18554688 25.375 C18.2643735 33.10888396 18.2643735 33.10888396 22.71484375 40.09765625 C22.71484375 40.75765625 22.71484375 41.41765625 22.71484375 42.09765625 C18.75484375 42.09765625 14.79484375 42.09765625 10.71484375 42.09765625 C11.04484375 40.77765625 11.37484375 39.45765625 11.71484375 38.09765625 C11.38484375 37.10765625 11.05484375 36.11765625 10.71484375 35.09765625 C5.10484375 35.09765625 -0.50515625 35.09765625 -6.28515625 35.09765625 C-6.28515625 37.40765625 -6.28515625 39.71765625 -6.28515625 42.09765625 C-9.91515625 42.09765625 -13.54515625 42.09765625 -17.28515625 42.09765625 C-16.62515625 40.77765625 -15.96515625 39.45765625 -15.28515625 38.09765625 C-14.47540614 35.87430131 -13.69633859 33.63967966 -12.9375 31.3984375 C-12.61236168 30.44495674 -12.61236168 30.44495674 -12.28065491 29.47221375 C-11.35724714 26.76408227 -10.44047146 24.05371846 -9.52319336 21.34350586 C-8.85115519 19.36100509 -8.17568187 17.37969876 -7.5 15.3984375 C-6.89853149 13.62206909 -6.89853149 13.62206909 -6.28491211 11.80981445 C-5.28515625 9.09765625 -5.28515625 9.09765625 -4.28515625 8.09765625 C-4.12015625 6.94265625 -3.95515625 5.78765625 -3.78515625 4.59765625 C-3.14756411 0.13451129 -3.14756411 0.13451129 0 0 Z " fill="#0C0C0C" transform="translate(417.28515625,56.90234375)"/>
<path d="M0 0 C1.4540625 0.0309375 1.4540625 0.0309375 2.9375 0.0625 C3.02644531 0.60777344 3.11539062 1.15304688 3.20703125 1.71484375 C5.14058911 9.85247933 10.45125376 13.27784043 16.9375 18.0625 C18.83929839 19.57586742 20.73556425 21.09622578 22.625 22.625 C24.06188018 23.77161049 25.499273 24.91757932 26.9375 26.0625 C26.9375 25.38147217 26.9375 24.70044434 26.9375 23.9987793 C26.9375 16.02001953 26.9375 8.04125977 26.9375 0.0625 C29.9075 0.0625 32.8775 0.0625 35.9375 0.0625 C36.4325 1.5475 36.4325 1.5475 36.9375 3.0625 C36.2775 3.0625 35.6175 3.0625 34.9375 3.0625 C35.05574064 8.13468134 35.17998853 13.2066664 35.30981445 18.27856445 C35.35313562 20.00410965 35.39481273 21.72969693 35.43481445 23.45532227 C35.49258526 25.93518764 35.55626003 28.41484172 35.62109375 30.89453125 C35.63780624 31.66650345 35.65451874 32.43847565 35.67173767 33.23384094 C35.75977895 36.41432933 35.92495195 39.02485584 36.9375 42.0625 C34.2975 42.0625 31.6575 42.0625 28.9375 42.0625 C28.669375 40.928125 28.40125 39.79375 28.125 38.625 C25.77028487 32.27848209 20.1365017 29.02735941 14.9375 25.0625 C12.79620668 23.19367141 10.69018142 21.29376774 8.59375 19.375 C6.85856362 17.84653922 6.85856362 17.84653922 3.9375 17.0625 C4.0762881 20.66697434 4.22473935 24.27098712 4.375 27.875 C4.41431641 28.89916016 4.45363281 29.92332031 4.49414062 30.97851562 C4.55698242 32.45288086 4.55698242 32.45288086 4.62109375 33.95703125 C4.65775146 34.86300049 4.69440918 35.76896973 4.73217773 36.70239258 C4.8583205 39.21298782 4.8583205 39.21298782 5.9375 42.0625 C2.6375 42.0625 -0.6625 42.0625 -4.0625 42.0625 C-4.08714638 36.24178378 -4.1053343 30.42109766 -4.11743164 24.6003418 C-4.12247267 22.61856559 -4.12930538 20.63679311 -4.13793945 18.6550293 C-4.15001515 15.81297891 -4.15573045 12.97097753 -4.16015625 10.12890625 C-4.16531754 9.23724258 -4.17047882 8.34557892 -4.17579651 7.42689514 C-4.17599177 5.30509399 -4.1246003 3.1833922 -4.0625 1.0625 C-3.0625 0.0625 -3.0625 0.0625 0 0 Z " fill="#0C0C0C" transform="translate(281.0625,56.9375)"/>
<path d="M0 0 C1.06250977 0.00193359 1.06250977 0.00193359 2.14648438 0.00390625 C7.48701642 0.10216811 11.44244263 0.93997131 16.1875 3.3125 C15.06298273 6.2844385 13.96456209 8.64690687 12.1875 11.3125 C11.5275 11.3125 10.8675 11.3125 10.1875 11.3125 C9.5275 10.3225 8.8675 9.3325 8.1875 8.3125 C5.0661154 7.12568783 1.93818145 7.14753865 -1.375 7.125 C-2.80005859 7.10373047 -2.80005859 7.10373047 -4.25390625 7.08203125 C-7.05475243 7.12891112 -7.05475243 7.12891112 -9.8125 9.3125 C-10.06280977 11.89630177 -10.06280977 11.89630177 -9.8125 14.3125 C-9.05066406 14.49425781 -8.28882812 14.67601563 -7.50390625 14.86328125 C12.16132989 19.65069829 12.16132989 19.65069829 16.1875 25.3125 C17.55578075 29.45154928 17.45473169 32.47936592 16.125 36.625 C13.07329436 40.85801106 9.14904457 42.25466125 4.1875 43.3125 C-2.39226627 43.96670238 -7.71880773 42.72876096 -13.8125 40.3125 C-14.823125 39.920625 -15.83375 39.52875 -16.875 39.125 C-17.514375 38.856875 -18.15375 38.58875 -18.8125 38.3125 C-17.54308503 34.39847051 -16.30082306 32.52177127 -12.8125 30.3125 C-12.214375 30.951875 -11.61625 31.59125 -11 32.25 C-7.54868117 35.50410061 -4.39135556 35.54160509 0.1875 35.6875 C1.239375 35.73648438 2.29125 35.78546875 3.375 35.8359375 C6.38038148 35.58694204 6.38038148 35.58694204 8.125 32.9765625 C9.53390834 30.27644227 9.53390834 30.27644227 8.1875 27.3125 C5.40143075 26.34525581 5.40143075 26.34525581 2.0625 25.75 C-2.63728204 24.76764732 -7.21867442 23.70133099 -11.8125 22.3125 C-11.8125 21.6525 -11.8125 20.9925 -11.8125 20.3125 C-12.43125 20.065 -13.05 19.8175 -13.6875 19.5625 C-16.27525992 18.04028828 -16.86842658 17.14472025 -17.8125 14.3125 C-18.45456661 10.09320513 -18.04265264 8.65444106 -15.625 5.0625 C-10.86107992 0.40444481 -6.48074239 -0.04849948 0 0 Z " fill="#0D0D0D" transform="translate(100.8125,56.6875)"/>
<path d="M0 0 C4.53897705 -0.02465392 9.07791543 -0.04283789 13.61694336 -0.05493164 C15.16219766 -0.0599714 16.70744716 -0.0668032 18.25268555 -0.07543945 C20.46925029 -0.08752076 22.68575218 -0.09323173 24.90234375 -0.09765625 C25.5971434 -0.10281754 26.29194305 -0.10797882 27.00779724 -0.11329651 C28.6722933 -0.11349277 30.33665499 -0.06189129 32 0 C33 1 33 1 33.0625 4.5625 C33.041875 5.696875 33.02125 6.83125 33 8 C32.01 7.67 31.02 7.34 30 7 C28.37280518 6.91856145 26.74248281 6.8924698 25.11328125 6.90234375 C24.17548828 6.90556641 23.23769531 6.90878906 22.27148438 6.91210938 C20.80678711 6.92467773 20.80678711 6.92467773 19.3125 6.9375 C17.83040039 6.94426758 17.83040039 6.94426758 16.31835938 6.95117188 C13.87888042 6.9629568 11.43943259 6.98089217 9 7 C8.67 10.63 8.34 14.26 8 18 C16.415 17.505 16.415 17.505 25 17 C25 19.64 25 22.28 25 25 C19.39 24.67 13.78 24.34 8 24 C8 27.96 8 31.92 8 36 C11.60444204 35.8594118 15.20845948 35.7127618 18.8125 35.5625 C19.83666016 35.52318359 20.86082031 35.48386719 21.91601562 35.44335938 C22.89892578 35.40146484 23.88183594 35.35957031 24.89453125 35.31640625 C26.25348511 35.26141968 26.25348511 35.26141968 27.63989258 35.20532227 C30.15048782 35.0791795 30.15048782 35.0791795 33 34 C33 36.64 33 39.28 33 42 C21.78 42 10.56 42 -1 42 C-0.67 41.01 -0.34 40.02 0 39 C0.0850911 36.30343559 0.11590385 33.63351659 0.09765625 30.9375 C0.09553383 29.75595337 0.09553383 29.75595337 0.09336853 28.55053711 C0.08777441 26.0336527 0.07523324 23.51685744 0.0625 21 C0.05748333 19.3046888 0.05292071 17.60937619 0.04882812 15.9140625 C0.0406568 12.80857555 0.02997009 9.70312193 0.01586914 6.59765625 C0.00616853 4.39845253 0 2.19922511 0 0 Z " fill="#0C0C0C" transform="translate(223,57)"/>
<path d="M0 0 C15.76470588 0 15.76470588 0 20 4 C23.0272325 7.0272325 23.17352056 10.20561689 23.3125 14.375 C23.25975428 18.95634241 22.0226018 21.47363123 19 25 C12.88924744 30.37005528 9.00358142 29 0 29 C0 19.43 0 9.86 0 0 Z " fill="#FCFCFC" transform="translate(520,64)"/>
<path d="M0 0 C1.43352212 0.00015908 2.86704998 0.00585132 4.30053711 0.01586914 C5.43041298 0.01799156 5.43041298 0.01799156 6.58311462 0.02015686 C8.99807646 0.02577163 11.41294687 0.03832656 13.82788086 0.05102539 C15.46134307 0.05603849 17.09480672 0.06060173 18.72827148 0.06469727 C22.74067671 0.07574585 26.75301326 0.09302033 30.76538086 0.11352539 C30.76538086 2.75352539 30.76538086 5.39352539 30.76538086 8.11352539 C30.10538086 8.11352539 29.44538086 8.11352539 28.76538086 8.11352539 C28.76538086 7.45352539 28.76538086 6.79352539 28.76538086 6.11352539 C25.46538086 6.44352539 22.16538086 6.77352539 18.76538086 7.11352539 C18.76538086 18.66352539 18.76538086 30.21352539 18.76538086 42.11352539 C15.46538086 42.11352539 12.16538086 42.11352539 8.76538086 42.11352539 C8.76538086 30.56352539 8.76538086 19.01352539 8.76538086 7.11352539 C-0.18052659 6.58647911 -0.18052659 6.58647911 -4.23461914 8.11352539 C-4.27703637 5.78057764 -4.27554851 3.44649972 -4.23461914 1.11352539 C-3.23461914 0.11352539 -3.23461914 0.11352539 0 0 Z " fill="#151515" transform="translate(568.234619140625,56.886474609375)"/>
<path d="M0 0 C0.71353638 0.00202423 1.42707275 0.00404846 2.16223145 0.00613403 C2.89091431 0.00517731 3.61959717 0.00422058 4.37036133 0.00323486 C5.91377855 0.00255318 7.45719861 0.00440666 9.00061035 0.00857544 C11.37095544 0.01392391 13.74111104 0.00863011 16.1114502 0.00222778 C17.60754437 0.00288857 19.10363842 0.00416973 20.59973145 0.00613403 C21.31326782 0.0041098 22.0268042 0.00208557 22.76196289 0 C27.76602953 0.02399462 27.76602953 0.02399462 28.88098145 1.13894653 C28.92191082 3.47192086 28.92339868 5.80599878 28.88098145 8.13894653 C27.89098145 7.80894653 26.90098145 7.47894653 25.88098145 7.13894653 C24.15302793 7.07091687 22.42262779 7.05399009 20.69348145 7.07644653 C19.79242676 7.08546997 18.89137207 7.09449341 17.9630127 7.10379028 C16.93240723 7.12119263 16.93240723 7.12119263 15.88098145 7.13894653 C15.85625786 11.64130249 15.83811026 16.14361889 15.8260498 20.64602661 C15.82102184 22.17760913 15.8141986 23.70918686 15.80554199 25.24075317 C15.79340915 27.44250676 15.78773777 29.64419686 15.7833252 31.84597778 C15.77816391 32.53045486 15.77300262 33.21493195 15.76768494 33.92015076 C15.76732784 36.94800895 15.91481525 39.24044796 16.88098145 42.13894653 C13.25098145 42.13894653 9.62098145 42.13894653 5.88098145 42.13894653 C5.88098145 41.47894653 5.88098145 40.81894653 5.88098145 40.13894653 C6.54098145 40.13894653 7.20098145 40.13894653 7.88098145 40.13894653 C7.88098145 28.91894653 7.88098145 17.69894653 7.88098145 6.13894653 C3.26098145 6.46894653 -1.35901855 6.79894653 -6.11901855 7.13894653 C-6.11901855 0.02934084 -6.11901855 0.02934084 0 0 Z " fill="#0A0A0A" transform="translate(141.1190185546875,56.861053466796875)"/>
<path d="M0 0 C3.3 0 6.6 0 10 0 C10 13.53 10 27.06 10 41 C6.7 41 3.4 41 0 41 C0.33 40.01 0.66 39.02 1 38 C1.09683764 35.37624805 1.13998263 32.77987673 1.1328125 30.15625 C1.13376923 29.39074829 1.13472595 28.62524658 1.13571167 27.83654785 C1.13639166 26.21931882 1.13454997 24.60208705 1.13037109 22.98486328 C1.12502027 20.50937774 1.13032216 18.03407364 1.13671875 15.55859375 C1.13605794 13.98697877 1.13477671 12.4153639 1.1328125 10.84375 C1.13584885 9.73271912 1.13584885 9.73271912 1.13894653 8.59924316 C1.12463282 5.46229851 0.99964247 2.9989274 0 0 Z " fill="#0F0F0F" transform="translate(189,58)"/>
<path d="M0 0 C0.67740234 -0.020625 1.35480469 -0.04125 2.05273438 -0.0625 C5.16294953 -0.08682231 7.37041768 0.08237049 10.140625 1.546875 C11.6875 3.25 11.6875 3.25 12.125 6.75 C11.6875 10.25 11.6875 10.25 10.41088867 11.95043945 C8.31004618 13.53462766 7.28030141 13.60171733 4.67578125 13.54296875 C3.91845703 13.53330078 3.16113281 13.52363281 2.38085938 13.51367188 C1.20233398 13.4759668 1.20233398 13.4759668 0 13.4375 C-1.19592773 13.41719727 -1.19592773 13.41719727 -2.41601562 13.39648438 C-4.38179967 13.36117089 -6.34723582 13.30736447 -8.3125 13.25 C-8.33936553 11.27090602 -8.35883375 9.29171029 -8.375 7.3125 C-8.38660156 6.21035156 -8.39820313 5.10820313 -8.41015625 3.97265625 C-8.219024 -1.35611097 -4.33117019 0.03241287 0 0 Z " fill="#FDFDFD" transform="translate(472.3125,63.75)"/>
<path d="M0 0 C2.51242417 3.03794555 3.88228534 5.91438973 5.1875 9.625 C5.53167969 10.58664063 5.87585938 11.54828125 6.23046875 12.5390625 C7 15 7 15 7 17 C2.71 17 -1.58 17 -6 17 C-5.13293502 13.53174008 -4.12341051 10.20338247 -3 6.8125 C-2.649375 5.74644531 -2.29875 4.68039063 -1.9375 3.58203125 C-1 1 -1 1 0 0 Z " fill="#F9F9F9" transform="translate(419,68)"/>
</svg>
