<?xml version="1.0" encoding="UTF-8"?>
<svg version="1.1" xmlns="http://www.w3.org/2000/svg" width="5000" height="5000">
<path d="M0 0 C3.48536287 3.25902612 5.03919002 7.57965055 6.89355469 11.87646484 C9.14484826 14.80457684 9.14484826 14.80457684 11.64355469 17.37646484 C12.39121094 18.17955078 13.13886719 18.98263672 13.90917969 19.81005859 C16.20549691 22.20130232 18.51965697 24.56191457 20.89355469 26.87646484 C21.45558594 27.48361328 22.01761719 28.09076172 22.59667969 28.71630859 C40.96196528 48.09799358 65.6886913 62.147848 88.89355469 74.87646484 C89.65249023 75.29847168 90.41142578 75.72047852 91.19335938 76.15527344 C142.83113364 104.78623084 200.89579427 122.53909612 257.89355469 136.87646484 C258.67202759 137.07328857 259.45050049 137.2701123 260.25256348 137.47290039 C296.62159241 146.65566358 333.44290624 154.00799102 370.45605469 160.06396484 C371.45427246 160.22778656 372.45249023 160.39160828 373.48095703 160.56039429 C385.01708023 162.44079262 396.56158187 164.12136878 408.15917969 165.57568359 C410.36554729 165.86071489 412.57184689 166.14627305 414.77807617 166.43237305 C418.91722931 166.9688012 423.05791849 167.45743122 427.20629883 167.91625977 C441.0771114 169.60065621 451.84063464 173.90758534 463.89355469 180.87646484 C465.14447831 181.57809685 466.39597635 182.27870628 467.64819336 182.97802734 C470.90678152 184.83454113 474.1231303 186.74642853 477.33105469 188.68896484 C478.47475739 189.37494353 479.61872517 190.06048045 480.76293945 190.74560547 C484.14749118 192.77663925 487.52168415 194.82443789 490.89355469 196.87646484 C491.90289063 197.49054199 492.91222656 198.10461914 493.95214844 198.73730469 C504.07156985 204.9125288 514.10605818 211.18426411 523.89355469 217.87646484 C525.33087166 218.84939154 526.76838873 219.82202266 528.20605469 220.79443359 C546.55209686 233.23650285 564.34263298 246.3383155 581.89355469 259.87646484 C582.57998047 260.40546387 583.26640625 260.93446289 583.97363281 261.47949219 C591.40993949 267.22451578 598.66061844 273.15020118 605.80371094 279.25537109 C608.66933163 281.69949818 611.58760991 284.07342218 614.51855469 286.43896484 C619.27875522 290.31225756 623.82160252 294.38406477 628.33886719 298.53662109 C630.52053283 300.53481333 632.72366777 302.49795373 634.95605469 304.43896484 C639.65225134 308.53041987 644.29181976 312.67893637 648.89355469 316.87646484 C649.39693359 317.33327637 649.9003125 317.79008789 650.41894531 318.26074219 C660.72333208 327.64620692 670.59361232 337.46945042 680.45605469 347.31396484 C681.1162561 347.97157806 681.77645752 348.62919128 682.45666504 349.30673218 C695.15477578 361.96560253 695.15477578 361.96560253 700.38256836 368.12036133 C703.22281269 371.42135947 706.26722222 374.53511457 709.26855469 377.68896484 C714.36995865 383.08595715 719.22234535 388.55556606 723.85058594 394.36474609 C725.9716512 396.97248024 728.18955874 399.45697862 730.45605469 401.93896484 C734.0267794 405.86676203 737.39422671 409.8988525 740.67871094 414.06787109 C742.32010245 416.14928291 743.97265489 418.21810013 745.63964844 420.27880859 C752.41596682 428.66587285 758.99748447 437.1768262 765.39892578 445.85351562 C766.36174793 447.15667543 767.32796388 448.45733803 768.29833984 449.75488281 C791.06263889 480.21079182 811.52373719 512.61132174 829.89355469 545.87646484 C830.71460693 547.35397217 830.71460693 547.35397217 831.55224609 548.86132812 C854.97988539 591.12952007 874.26720706 635.16086781 889.89355469 680.87646484 C890.13634155 681.58526794 890.37912842 682.29407104 890.62927246 683.02435303 C916.51772564 758.78659661 930.55056651 837.98126493 935.05703735 928.12756348 C935.15475115 930.33990157 935.25632093 932.55207345 935.3621521 934.76403809 C936.88472681 967.28670679 932.62325396 995.9202922 910.81542969 1021.29443359 C894.06086556 1039.32110351 866.95751975 1048.83540128 842.78634644 1049.97589111 C840.55981419 1050.02351442 838.33543496 1050.04119285 836.10839844 1050.04443359 C835.28964737 1050.04776199 834.4708963 1050.05109039 833.62733459 1050.05451965 C831.90203405 1050.05955363 830.17672389 1050.06192908 828.45141602 1050.06176758 C825.86229623 1050.06393865 823.27361413 1050.08208971 820.68457031 1050.10107422 C805.88559566 1050.15408854 792.0947869 1048.56421544 777.76855469 1044.62646484 C776.51631104 1044.28639404 775.26406738 1043.94632324 773.97387695 1043.59594727 C705.67701263 1024.82041765 639.24753687 999.35287899 574.89355469 969.87646484 C573.76546387 969.36390137 572.63737305 968.85133789 571.47509766 968.32324219 C554.60604003 960.64893788 537.97778681 952.5205116 521.39355469 944.25146484 C520.43780548 943.77622375 519.48205627 943.30098267 518.49734497 942.81134033 C505.23939321 936.21066447 492.16955543 929.32035947 479.20788574 922.15551758 C477.2319928 921.06350817 475.25375303 919.97604903 473.2734375 918.89208984 C458.76031934 910.93222083 444.55447096 902.53257836 430.44824219 893.88037109 C426.59807139 891.51939648 422.73895393 889.18136432 418.83886719 886.90380859 C404.45769293 878.49376517 390.68169969 869.19328696 376.86750793 859.89274597 C372.86785287 857.19999514 368.86014155 854.51989182 364.84474182 851.85067749 C359.06435835 848.00795926 353.3027214 844.14647091 347.64355469 840.12646484 C346.94939453 839.63460693 346.25523437 839.14274902 345.54003906 838.63598633 C319.504896 820.11521614 294.07371243 800.66744179 269.73364258 779.96459961 C266.2821561 777.03362824 262.79137206 774.15931734 259.26855469 771.31396484 C254.50548251 767.43833552 249.95991219 763.36412196 245.44042969 759.20849609 C243.3041372 757.25241233 241.14574811 755.33458787 238.95605469 753.43896484 C234.63595897 749.6808328 230.42079673 745.81074233 226.21264648 741.9284668 C224.20631315 740.0797121 222.19171169 738.24237386 220.16723633 736.41333008 C210.40737396 727.54050099 201.09490287 718.22977652 191.78027344 708.89355469 C189.00667107 706.11455811 186.22771787 703.34099202 183.44824219 700.56787109 C181.66146288 698.78043148 179.87499353 696.99268194 178.08886719 695.20458984 C177.26895294 694.38669983 176.4490387 693.56880981 175.60427856 692.72613525 C171.38964886 688.49443741 167.32038964 684.19565028 163.4364624 679.65748596 C160.73044079 676.53385025 157.86103995 673.56288057 155.01855469 670.56396484 C150.09861696 665.33697824 145.43980787 660.01783623 140.95996094 654.40771484 C138.89242686 651.87508331 136.73242128 649.46915324 134.51855469 647.06396484 C130.4548269 642.60446531 126.73471492 637.94122757 123.04150391 633.17651367 C120.15623982 629.46024956 117.19497203 625.83422351 114.14355469 622.25146484 C107.70090919 614.57533816 101.77380821 606.51295445 95.81054688 598.46240234 C93.97147146 595.98157111 92.12472982 593.50663049 90.27636719 591.03271484 C58.97006697 549.00620765 31.97922757 504.06559081 7.80181885 457.62011719 C6.98095118 456.04424545 6.15692285 454.47002107 5.33251953 452.89599609 C-34.27764137 376.97305739 -61.02064918 293.50268498 -94.32705688 99.18322754 C-94.98464292 92.7857874 -95.80018198 86.4226333 -96.72143555 80.05810547 C-99.06151183 60.72020178 -95.25230507 39.45174383 -83.10644531 23.87646484 C-67.26571798 4.85623669 -23.72586824 -12.65489634 0 0 Z " fill="#1447E6" transform="translate(1198.1064453125,1820.12353515625)"/>
<path d="M0 0 C2.44465549 0.03652723 4.8890095 0.14400586 7.328125 0.3125 C8.61130615 0.35995361 9.8944873 0.40740723 11.21655273 0.45629883 C34.73002553 1.58985023 56.65335179 7.12179754 73.359375 24.7265625 C86.91795901 40.52899668 89.87318252 62.44859853 88.41287231 82.59197998 C87.87927223 88.57467458 87.16837381 94.53679121 86.453125 100.5 C86.2255809 102.43757123 85.99812513 104.37515284 85.77075195 106.31274414 C85.06016625 112.31520439 84.3236258 118.31428609 83.578125 124.3125 C83.46212952 125.24860107 83.34613403 126.18470215 83.22662354 127.14916992 C72.51024279 213.26666482 52.90552092 298.38562987 11.578125 400.3125 C10.85375244 401.99448486 10.85375244 401.99448486 10.11474609 403.71044922 C-5.12386247 438.92460944 -22.05914911 473.5417114 -41.74414062 506.4921875 C-43.3882484 509.25597286 -45.0100785 512.03157736 -46.625 514.8125 C-58.93291495 535.95754718 -72.2028538 556.40587033 -86.421875 576.3125 C-87.28974557 577.53857928 -88.15698435 578.76510614 -89.0234375 579.9921875 C-91.46863363 583.44755929 -93.93981368 586.8835354 -96.421875 590.3125 C-96.94217285 591.03260254 -97.4624707 591.75270508 -97.99853516 592.49462891 C-105.17973068 602.40993983 -112.55340448 612.09945524 -120.33984375 621.546875 C-123.26908049 625.10465242 -126.1001201 628.73185791 -128.921875 632.375 C-134.30611614 639.29184516 -140.03810105 645.88065856 -145.81640625 652.46875 C-147.36617589 654.24853411 -148.89766949 656.04205062 -150.421875 657.84375 C-156.19759082 664.66959597 -162.12078006 671.31353342 -168.26342773 677.8125 C-171.38923571 681.12037127 -174.4550151 684.46877773 -177.47558594 687.87329102 C-182.50164092 693.46334837 -187.76132604 698.79768531 -193.08203125 704.10546875 C-194.08147953 705.10559335 -195.08077956 706.10586611 -196.0799408 707.10627747 C-198.1565768 709.18437368 -200.23497405 711.26068692 -202.31469727 713.33569336 C-204.95931388 715.97459872 -207.59939326 718.61799066 -210.23816776 721.26273632 C-212.29458365 723.32279074 -214.35340608 725.38042689 -216.41293144 727.43737221 C-217.38673377 728.41051513 -218.35981527 729.38438001 -219.33210945 730.35902977 C-224.31838887 735.35474633 -229.33507166 740.2484231 -234.70437622 744.83311462 C-237.63465825 747.35714343 -240.42174987 750.03408773 -243.234375 752.6875 C-248.2553084 757.39079762 -253.40527362 761.8343434 -258.77734375 766.13671875 C-261.58026748 768.442817 -264.25190775 770.85401531 -266.921875 773.3125 C-272.25161893 778.20624231 -277.78957751 782.77357316 -283.421875 787.3125 C-284.64015063 788.31018805 -285.85754807 789.30894911 -287.07421875 790.30859375 C-296.00116878 797.62998524 -305.08371572 804.71518805 -314.28515625 811.6875 C-316.41046554 813.30382297 -318.52686941 814.93110422 -320.640625 816.5625 C-330.75142704 824.35941629 -341.01482744 831.91589937 -351.421875 839.3125 C-352.19869629 839.86518555 -352.97551758 840.41787109 -353.77587891 840.98730469 C-408.35577561 879.72863624 -465.78131998 913.84983992 -525.36993408 944.26507568 C-526.79028491 944.99010143 -528.21030725 945.71577092 -529.63006592 946.44195557 C-552.55668412 958.16474159 -575.64631629 969.28762802 -599.27929688 979.51464844 C-603.19547624 981.21041467 -607.09858446 982.93466842 -611 984.6640625 C-654.16525396 1003.74334279 -698.54896689 1019.76055769 -743.421875 1034.3125 C-744.07393921 1034.52455078 -744.72600342 1034.73660156 -745.39782715 1034.95507812 C-759.86051786 1039.65414066 -774.39943244 1043.96390848 -789.109375 1047.8125 C-789.75999908 1047.98471069 -790.41062317 1048.15692139 -791.08096313 1048.33435059 C-804.32558204 1051.82125304 -816.65963893 1052.52247281 -830.27734375 1052.55273438 C-832.88835303 1052.56237621 -835.4985516 1052.59344926 -838.109375 1052.625 C-865.93428791 1052.80024656 -894.34804511 1046.56561297 -915.421875 1027.3125 C-916.1025 1026.72339844 -916.783125 1026.13429688 -917.484375 1025.52734375 C-933.64569017 1010.6601964 -942.5197973 987.06309236 -943.7878418 965.48706055 C-943.96974967 960.48980407 -943.92959177 955.49910993 -943.859375 950.5 C-943.8491481 949.13379517 -943.8491481 949.13379517 -943.8387146 947.73999023 C-943.18911517 862.36406487 -928.95734701 776.45396244 -899.421875 686.3125 C-899.07639618 685.27766479 -899.07639618 685.27766479 -898.72393799 684.22192383 C-889.12286075 655.5452827 -877.70855072 627.51760225 -864.77832031 600.18115234 C-863.37590727 597.21528603 -861.98890376 594.24247329 -860.6015625 591.26953125 C-841.79737277 551.2544938 -819.29956949 512.72362151 -793.95410156 476.50341797 C-792.46441315 474.37332494 -790.98541982 472.23614067 -789.5078125 470.09765625 C-772.61205235 445.77186725 -754.05743065 422.54274842 -734.85888672 400.00390625 C-733.42788498 398.31957393 -732.00450465 396.6290372 -730.58203125 394.9375 C-723.40983533 386.44439737 -715.89581933 378.32008761 -708.24951172 370.25341797 C-706.57471243 368.47481065 -704.91788192 366.68200218 -703.26953125 364.87890625 C-695.41347822 356.30565736 -687.25937194 348.04230991 -679.046875 339.8125 C-678.4826181 339.24565491 -677.91836121 338.67880981 -677.33700562 338.0947876 C-671.78913179 332.52683581 -666.24115289 327.00766826 -660.25927734 321.90039062 C-656.88013717 318.98012386 -653.66368007 315.88335051 -650.421875 312.8125 C-645.18927135 307.85583443 -639.87795838 303.02236949 -634.421875 298.3125 C-633.83970215 297.8081543 -633.2575293 297.30380859 -632.65771484 296.78417969 C-625.00997668 290.17099278 -617.27571917 283.68020283 -609.421875 277.3125 C-608.14932809 276.27003336 -606.87722257 275.22702777 -605.60546875 274.18359375 C-598.24309428 268.15334092 -590.83441367 262.22788834 -583.16259766 256.59228516 C-581.13480158 255.10144266 -579.11236716 253.60345616 -577.08984375 252.10546875 C-573.00706388 249.08432166 -568.91443247 246.07682243 -564.81835938 243.07373047 C-562.61328452 241.45317118 -560.41545067 239.82328573 -558.21875 238.19140625 C-534.54547316 220.72179491 -509.40814622 204.86076144 -483.921875 190.1875 C-483.17679688 189.75703369 -482.43171875 189.32656738 -481.6640625 188.88305664 C-480.00980651 187.94233686 -478.34357124 187.02254026 -476.66943359 186.11767578 C-474.10330691 184.6912782 -471.62551101 183.2037317 -469.13134766 181.65966797 C-454.86532055 173.15337293 -441.17530616 170.78049437 -424.82768631 168.92448807 C-421.35069657 168.5187364 -417.88054219 168.061751 -414.40991211 167.60522461 C-413.70976707 167.51323508 -413.00962202 167.42124556 -412.28826046 167.32646847 C-410.87107586 167.14013488 -409.45391677 166.95360716 -408.03678322 166.76688576 C-405.91247868 166.48858551 -403.78759692 166.21513949 -401.66252136 165.9427948 C-388.70695858 164.27391015 -375.84023876 162.18646674 -362.984375 159.875 C-361.95398102 159.69014038 -360.92358704 159.50528076 -359.86196899 159.31481934 C-309.03528336 150.13983443 -258.69554884 138.87920121 -209.421875 123.3125 C-208.66432922 123.07337891 -207.90678345 122.83425781 -207.12628174 122.58789062 C-146.20750447 103.30013233 -83.74950923 78.15614737 -35.421875 35.3125 C-34.90399414 34.86165039 -34.38611328 34.41080078 -33.85253906 33.94628906 C-25.85556941 26.97799578 -17.81038492 19.6256167 -12.74023438 10.17944336 C-9.4144208 4.100794 -7.19604196 0.59482155 0 0 Z " fill="#1447E6" transform="translate(3859.421875,1804.6875)"/>
<path d="M0 0 C0.75321533 0.20687439 1.50643066 0.41374878 2.2824707 0.62689209 C13.90137541 3.83623134 24.57901757 6.78621888 34.0625 14.5 C35.53948532 15.66387709 37.01738891 16.82658959 38.49609375 17.98828125 C39.64247314 18.89634521 39.64247314 18.89634521 40.81201172 19.82275391 C44.86886321 23.00736148 48.996103 26.09721626 53.125 29.1875 C53.96450195 29.8168042 54.80400391 30.4461084 55.66894531 31.09448242 C62.66178505 36.3229687 69.72024563 41.45586905 76.81640625 46.54296875 C79.61038182 48.5463937 82.38889025 50.56798238 85.15234375 52.61328125 C98.59746957 62.52235524 112.5442953 71.680412 126.46847534 80.89593506 C130.14615613 83.33063662 133.8164748 85.77524192 137.47265625 88.2421875 C212.87495514 139.1175308 297.97526907 185.01358593 388.1875 201.6875 C389.1554248 201.86684082 390.12334961 202.04618164 391.12060547 202.23095703 C403.41647003 204.40437034 415.66313781 204.98124878 428.125 205.0625 C428.80774994 205.0705365 429.49049988 205.078573 430.19393921 205.08685303 C438.74535219 205.1634571 446.63684908 204.51574256 454.96434021 202.64779663 C461.05301409 201.31632617 461.05301409 201.31632617 464.1875 202.6875 C465.84399414 203.93994141 465.84399414 203.93994141 467.47265625 205.5390625 C468.08044922 206.13533447 468.68824219 206.73160645 469.31445312 207.34594727 C469.95318359 207.99490967 470.59191406 208.64387207 471.25 209.3125 C471.91322266 209.984021 472.57644531 210.65554199 473.25976562 211.34741211 C488.81966114 227.43434845 500.87960922 246.75382626 501.6875 269.6875 C501.03816293 288.09934775 493.44027742 303.09881499 481.1875 316.6875 C480.19169922 317.80705078 480.19169922 317.80705078 479.17578125 318.94921875 C474.06677107 324.36963526 468.32385108 328.71175516 462.34033203 333.10083008 C457.91567832 336.35406987 453.65801394 339.72548093 449.5 343.3125 C443.87891299 348.14680569 438.08144697 352.70927483 432.16943359 357.18261719 C429.88382853 358.91807784 427.6078234 360.66575436 425.33203125 362.4140625 C404.69523761 378.2487887 383.50366956 392.97509825 361.80078125 407.30029297 C358.99675804 409.15116104 356.19972162 411.01213958 353.40625 412.87890625 C307.25727722 443.50058237 257.21562933 469.28973408 206.1875 490.6875 C205.55577881 490.95244263 204.92405762 491.21738525 204.27319336 491.49035645 C127.20021246 523.71642794 46.30731837 545.26298292 -79.8125 561.9375 C-80.61930206 562.0147229 -81.42610413 562.0919458 -82.25735474 562.17150879 C-88.43707702 562.7537008 -94.62155626 563.24122597 -100.8125 563.6875 C-102.01308044 563.77470306 -103.21366089 563.86190613 -104.45062256 563.95175171 C-128.33058242 565.63050849 -152.14744434 566.05292874 -176.081707 566.00555801 C-178.98661098 565.99990442 -181.89150908 565.99709207 -184.79641724 565.99447632 C-213.28385842 565.95722156 -241.63634408 565.52729267 -270.02526855 562.94073486 C-272.94364189 562.67558506 -275.86282805 562.42107753 -278.78222656 562.16748047 C-309.28783164 559.4850819 -339.58035715 555.54790327 -369.8125 550.6875 C-370.74348511 550.53817017 -371.67447021 550.38884033 -372.63366699 550.23498535 C-472.39410098 534.14713325 -570.5972862 505.7307565 -723.8125 442.6875 C-724.90208008 442.19008301 -725.99166016 441.69266602 -727.11425781 441.18017578 C-756.15244835 427.90617127 -784.82792191 414.06780781 -812.8125 398.6875 C-813.95348145 398.06536621 -815.09446289 397.44323242 -816.27001953 396.80224609 C-819.64370427 394.96105681 -823.01055014 393.10800233 -826.375 391.25 C-827.36757812 390.70714355 -828.36015625 390.16428711 -829.3828125 389.60498047 C-838.22239442 384.67556055 -846.58176566 379.04430884 -854 372.125 C-856.94277604 369.41002179 -859.8983501 366.73167828 -862.9375 364.125 C-884.45587002 345.22663112 -903.54019641 318.36842139 -906.03564453 289.06738281 C-907.49383367 263.35022899 -899.93776076 239.97388724 -883.00390625 220.35546875 C-880.3521718 217.38649945 -877.59981524 214.52930411 -874.8125 211.6875 C-874.08933594 210.93726562 -873.36617187 210.18703125 -872.62109375 209.4140625 C-868.82651485 205.53779991 -864.85808426 201.93721278 -860.74609375 198.40234375 C-858.85755403 196.72745701 -857.08094352 194.98802413 -855.3125 193.1875 C-851.64983858 189.47567534 -847.77313486 186.07682772 -843.8125 182.6875 C-842.76942878 181.79178598 -841.72646855 180.8959427 -840.68359375 180 C-838.29932587 177.95284988 -835.91210595 175.9092004 -833.5234375 173.8671875 C-831.1042862 171.79779302 -828.69311267 169.71972693 -826.2890625 167.6328125 C-818.93936323 161.26451789 -811.44376311 155.14271235 -803.75195312 149.19287109 C-801.63515748 147.5498497 -799.52811113 145.89481492 -797.421875 144.23828125 C-788.99991518 137.62680031 -780.51131218 131.16814308 -771.73388672 125.03613281 C-769.6072167 123.54341043 -767.4930416 122.03385623 -765.37890625 120.5234375 C-745.82383454 106.61362196 -725.54403657 93.76918927 -704.8125 81.6875 C-703.94544434 81.18186523 -703.07838867 80.67623047 -702.18505859 80.15527344 C-627.75968482 36.97001413 -546.80342668 5.54476708 -328.8125 -32.3125 C-328.06150024 -32.36470703 -327.31050049 -32.41691406 -326.53674316 -32.47070312 C-233.7337882 -38.807178 -139.54539722 -31.91300992 0 0 Z " fill="#1447E6" transform="translate(3977.8125,2983.3125)"/>
<path d="M0 0 C2.62506027 0.27385246 5.25125843 0.53405711 7.87786865 0.79260254 C69.13636593 6.87771414 129.76491089 18.55422995 188.45843506 37.25646973 C189.15132629 37.47647644 189.84421753 37.69648315 190.55810547 37.92315674 C213.2290261 45.13235991 235.47743027 53.15715438 257.45843506 62.25646973 C258.08733643 62.51623596 258.71623779 62.7760022 259.36419678 63.04364014 C288.48419316 75.09469606 317.05883809 88.672367 344.45843506 104.25646973 C345.4766333 104.83074707 346.49483154 105.40502441 347.54388428 105.9967041 C362.82053907 114.62406024 377.77322579 123.65752017 392.45843506 133.25646973 C393.48686523 133.92621826 393.48686523 133.92621826 394.53607178 134.60949707 C417.41652491 149.54672341 439.71174285 165.46883349 460.777771 182.87561035 C463.04532216 184.73866517 465.34424853 186.56084309 467.64593506 188.38146973 C473.10873372 192.74076482 478.43097204 197.26258814 483.746521 201.7989502 C485.45066397 203.24985344 487.16099842 204.69316183 488.87249756 206.13537598 C497.02924754 213.03413123 504.86917232 220.22266819 512.64007568 227.5513916 C514.95156098 229.7188746 517.28677598 231.8595473 519.62493896 233.99816895 C521.75777169 235.95258019 523.87860167 237.91956355 525.99456787 239.89221191 C527.37230223 241.17619783 528.75504963 242.45479865 530.13812256 243.73303223 C548.57966644 261.37027201 559.87788539 285.08535482 560.70843506 310.69396973 C560.33557499 343.54708427 541.97049343 370.52529842 519.70843506 393.19396973 C518.63555443 394.22578316 517.55241222 395.24705119 516.45843506 396.25646973 C515.59605225 397.05697754 515.59605225 397.05697754 514.71624756 397.87365723 C512.66857682 399.71741055 510.57344951 401.49036072 508.45843506 403.25646973 C507.63859131 403.96158691 506.81874756 404.6667041 505.97406006 405.39318848 C485.20158522 422.3760902 459.20174776 433.97422989 435.45843506 446.25646973 C434.83390442 446.5795813 434.20937378 446.90269287 433.56591797 447.2355957 C414.82959503 456.91134781 395.76278395 465.76719985 376.50537109 474.34368896 C374.5097975 475.23356591 372.5158679 476.12702404 370.5223999 477.02160645 C289.23659965 513.46298412 204.43206208 541.87361939 -474.54156494 550.25646973 C-475.20222961 550.04677551 -475.86289429 549.8370813 -476.5435791 549.62103271 C-515.63467858 537.20541798 -553.42661149 521.6836461 -590.54156494 504.25646973 C-591.63356201 503.74471191 -592.72555908 503.2329541 -593.85064697 502.70568848 C-608.4991365 495.8162258 -622.86352095 488.56943295 -636.9932251 480.67102051 C-639.44011597 479.31278275 -641.89927956 477.98103713 -644.36578369 476.65881348 C-669.83401688 462.95892902 -694.64021643 447.52309805 -718.54156494 431.25646973 C-719.12406006 430.86169434 -719.70655518 430.46691895 -720.30670166 430.06018066 C-745.93810231 412.67194457 -770.95609541 394.20104746 -794.83453369 374.46740723 C-798.05874315 371.8340702 -801.32699085 369.26099651 -804.60406494 366.69396973 C-805.19945068 366.22668457 -805.79483643 365.75939941 -806.40826416 365.2779541 C-809.05824212 363.19890933 -811.71152383 361.12472229 -814.37359619 359.06115723 C-827.05262439 349.12827799 -837.34322549 337.3026349 -843.54156494 322.25646973 C-843.85996338 321.48947754 -844.17836182 320.72248535 -844.50640869 319.93225098 C-849.94928424 303.95477758 -847.16824891 285.49437102 -839.95928955 270.66418457 C-835.91876726 262.80051304 -830.92012769 255.78206853 -825.13677979 249.11242676 C-824.0128983 247.8048438 -822.91088699 246.47830464 -821.82525635 245.13879395 C-813.69637722 235.18384624 -813.69637722 235.18384624 -808.54156494 232.25646973 C-803.00132171 231.81481562 -798.71469624 233.41827236 -793.54156494 235.25646973 C-706.9382717 248.75736335 -608.59037242 193.92952004 -478.54156494 116.25646973 C-477.53819092 115.59614746 -476.53481689 114.9358252 -475.5010376 114.25549316 C-463.74231357 106.51524493 -452.1213142 98.64465176 -440.76031494 90.33068848 C-436.57975505 87.2714365 -432.34645148 84.29158641 -428.10406494 81.31896973 C-415.52397797 72.47140392 -403.16322149 63.34749383 -391.04156494 53.88146973 C-390.28061523 53.2930127 -389.51966553 52.70455566 -388.73565674 52.0982666 C-385.70133057 49.74911086 -382.70946676 47.40272231 -379.81500244 44.88146973 C-335.46465461 7.89876926 -233.17941396 5.91840745 -177.2578125 0.52075195 C-174.69875594 0.27176391 -172.14091409 0.01267663 -169.58306885 -0.24841309 C-114.1219543 -5.79153055 -55.43616289 -5.82694618 0 0 Z " fill="#1447E6" transform="translate(1369.5415649414063,2914.7435302734375)"/>
<path d="M0 0 C1.6106193 1.38556644 3.19239987 2.80508798 4.75 4.25 C5.22920898 4.69359863 5.70841797 5.13719727 6.20214844 5.59423828 C12.42896375 11.42027886 17.82951082 17.38285517 22.69921875 24.41015625 C25.02364102 27.62892766 27.53485549 30.61957316 30.125 33.625 C34.60920671 38.84684181 38.8681782 44.20500238 43.03125 49.6875 C45.00792043 52.28962436 47.01214945 54.86815958 49.03125 57.4375 C57.21323053 67.85415606 65.08382387 78.44891363 72.75 89.25 C73.5529248 90.37317627 73.5529248 90.37317627 74.37207031 91.51904297 C126.68558063 164.74234143 169.35714395 245.02918735 205.75 348.25 C206.1526709 349.43883789 206.5553418 350.62767578 206.97021484 351.85253906 C232.81081663 428.67127236 247.6052328 509.18401815 253.4375 589.9375 C253.49843842 590.77512878 253.55937683 591.61275757 253.62216187 592.47576904 C255.35724924 616.6822228 255.95773761 640.85935719 255.9375 665.125 C255.93723312 665.79661163 255.93696625 666.46822327 255.93669128 667.16018677 C255.88978941 761.67936465 244.21950035 856.25115321 88.28271484 1299.50097656 C86.64367449 1302.44070169 85.01938689 1305.38835146 83.39453125 1308.3359375 C75.81965706 1322.00310182 68.06153165 1334.07876804 57.33984375 1345.47265625 C55.23756393 1347.72713733 53.23018933 1350.01491824 51.25 1352.375 C33.88089141 1372.24887366 6.69621107 1390.41219213 -20.13525391 1392.47143555 C-33.38198699 1392.9774396 -45.66064729 1392.61392614 -58.25 1388.25 C-59.28769531 1387.899375 -60.32539063 1387.54875 -61.39453125 1387.1875 C-79.01296622 1380.53729126 -94.29191134 1367.5870223 -106.4921875 1353.5234375 C-110.24920956 1349.20954262 -114.17495796 1345.07396348 -118.125 1340.9375 C-123.39536542 1335.38244558 -128.4255028 1329.77493492 -133.1875 1323.77734375 C-135.40297804 1321.06254395 -137.74040467 1318.50466591 -140.125 1315.9375 C-144.30912338 1311.38589583 -148.15989634 1306.66744251 -151.93969727 1301.78271484 C-154.88171846 1297.98177284 -157.88273962 1294.24072773 -160.94042969 1290.53222656 C-168.75472208 1281.0431069 -176.06742818 1271.22335895 -183.25 1261.25 C-183.77480957 1260.52135742 -184.29961914 1259.79271484 -184.84033203 1259.04199219 C-237.56462776 1185.58605495 -278.86797714 1103.69664128 -340.4375 841.6875 C-340.51640472 840.91053772 -340.59530945 840.13357544 -340.67660522 839.33306885 C-343.63577255 809.82293045 -344.63320988 780.34037407 -344.56805801 750.69885635 C-344.56239516 748.07644845 -344.55958845 745.45404708 -344.55697632 742.83163452 C-344.51658053 714.88325826 -343.86587037 687.09209101 -341.25 659.25 C-341.16514343 658.33089844 -341.08028687 657.41179688 -340.99285889 656.46484375 C-335.2727996 594.92672737 -324.61465203 533.6065272 -307 474.3125 C-306.70738281 473.3013916 -306.41476563 472.2902832 -306.11328125 471.24853516 C-303.0407362 461.3259216 -297.12993836 453.91312002 -290.75 445.875 C-283.3745464 436.48322827 -276.27456094 426.90601558 -269.25 417.25 C-268.69425293 416.48655273 -268.13850586 415.72310547 -267.56591797 414.93652344 C-265.91643729 412.6678218 -264.2698475 410.39706269 -262.625 408.125 C-262.15956787 407.48240234 -261.69413574 406.83980469 -261.21459961 406.17773438 C-259.55260084 403.87351653 -257.89999341 401.5628345 -256.25 399.25 C-255.84874908 398.6879184 -255.44749817 398.12583679 -255.03408813 397.54672241 C-247.0438149 386.33721813 -239.25657868 374.99680142 -231.55883789 363.5847168 C-229.68986872 360.81600905 -227.81477026 358.05152011 -225.93945312 355.28710938 C-218.81476185 344.75241856 -211.94870325 334.10843617 -205.41598511 323.19656372 C-203.72765197 320.37796166 -202.02041038 317.57086648 -200.31640625 314.76171875 C-155.71833038 240.76438291 -108.67056696 155.00281818 -107.25 32.25 C-107.52493286 31.1835022 -107.52493286 31.1835022 -107.80541992 30.09545898 C-108.56151825 26.54473575 -108.87645293 24.29278384 -106.96020508 21.10302734 C-104.98357419 18.84694446 -102.90600217 16.83118974 -100.6875 14.8125 C-99.91043701 14.07531738 -99.13337402 13.33813477 -98.33276367 12.57861328 C-70.16611321 -13.64958174 -33.01582435 -25.30332778 0 0 Z " fill="#1447E6" transform="translate(2565.25,1271.75)"/>
<path d="M0 0 C1.00472855 -0.00701431 2.00945709 -0.01402863 3.04463196 -0.02125549 C6.26677998 -0.03865402 9.48874423 -0.04510728 12.7109375 -0.046875 C14.36248337 -0.04788712 14.36248337 -0.04788712 16.0473938 -0.04891968 C31.95940283 -0.03340652 47.38875673 0.39877549 63.0859375 3.203125 C64.61323486 3.45255859 64.61323486 3.45255859 66.17138672 3.70703125 C113.20823332 11.40280376 159.62648885 29.86458389 198.0859375 58.203125 C199.11726807 58.96061035 199.11726807 58.96061035 200.16943359 59.73339844 C214.71854058 70.48723007 228.12017201 82.08187619 240.9609375 94.828125 C241.82879883 95.68664063 242.69666016 96.54515625 243.59082031 97.4296875 C249.51132225 103.37966723 254.85410245 109.64517836 260.0859375 116.203125 C261.09821656 117.42335641 262.11337798 118.64120896 263.1328125 119.85546875 C302.42663672 167.29522686 326.09744716 229.02690812 331.0859375 290.203125 C331.19679688 291.46125 331.30765625 292.719375 331.421875 294.015625 C335.62612561 349.46628175 325.56064878 406.2017274 301.0859375 456.203125 C300.6223584 457.16009277 300.1587793 458.11706055 299.68115234 459.10302734 C289.38026118 480.18761118 276.97295814 500.03549214 262.0859375 518.203125 C261.67102051 518.71278809 261.25610352 519.22245117 260.82861328 519.74755859 C245.73391603 538.21803053 229.11532358 555.38712381 210.02148438 569.74316406 C207.92187198 571.32687775 205.84068095 572.93340358 203.7578125 574.5390625 C192.08310395 583.43867599 179.86430686 590.99873335 167.0859375 598.203125 C165.81499464 598.93731044 164.54414847 599.67166329 163.2734375 600.40625 C92.00404416 640.25231991 3.86217563 646.85757493 -74.19189453 625.84301758 C-93.76490314 620.27724092 -113.16262415 612.81887365 -131.09521484 603.16699219 C-132.98333392 602.1664158 -134.8914531 601.21710041 -136.80859375 600.2734375 C-169.91583384 583.7337431 -201.89873874 558.42777672 -225.9140625 530.203125 C-226.73648438 529.26855469 -227.55890625 528.33398438 -228.40625 527.37109375 C-277.01200434 471.71701371 -303.85211163 399.83195383 -305.9140625 326.203125 C-305.9553125 324.97980469 -305.9965625 323.75648438 -306.0390625 322.49609375 C-307.27989897 249.67450317 -282.59198438 176.89059729 -236.9140625 120.203125 C-236.19089844 119.28789062 -235.46773437 118.37265625 -234.72265625 117.4296875 C-221.51023612 100.9318892 -206.56853962 85.22514415 -189.9140625 72.203125 C-188.78550348 71.27617852 -187.65933899 70.3463116 -186.53515625 69.4140625 C-135.36729034 27.22470891 -66.61609746 0.31295359 0 0 Z " fill="#1447E6" transform="translate(2513.9140625,2930.796875)"/>
<path d="M0 0 C0.73095383 -0.00705963 1.46190765 -0.01411926 2.2150116 -0.02139282 C57.31904099 -0.43230918 105.68503395 17.02253022 145.60644531 55.74755859 C181.26925987 90.92652954 199.17828526 139.66415654 200.33203125 189.203125 C200.2827994 191.20425485 200.19319855 193.20447889 200.08203125 195.203125 C200.02039795 196.36835693 200.02039795 196.36835693 199.95751953 197.55712891 C197.50894142 240.26252167 182.61620937 280.953311 154.08203125 313.203125 C153.62328613 313.72213379 153.16454102 314.24114258 152.69189453 314.77587891 C121.13369674 350.26714586 76.00633306 374.9516237 28.08203125 378.203125 C0.09337025 379.2712527 -26.26475553 377.48945722 -52.91796875 368.203125 C-54.15933594 367.77515625 -55.40070312 367.3471875 -56.6796875 366.90625 C-73.69971461 360.54012325 -90.17632733 351.82038661 -104.36572266 340.4453125 C-105.7964024 339.30040867 -107.25264842 338.18764844 -108.7109375 337.078125 C-148.01852662 306.42168917 -171.43126882 260.59592921 -178.26171875 211.74462891 C-184.12468192 160.51698823 -169.06461144 110.03011531 -137.23828125 69.78125 C-126.64466938 56.71979691 -114.65398226 44.91397781 -100.91796875 35.203125 C-100.3677002 34.80319336 -99.81743164 34.40326172 -99.25048828 33.99121094 C-71.12529448 13.62886082 -34.94153253 0.22630291 0 0 Z " fill="#1447E6" transform="translate(3186.91796875,1373.796875)"/>
<path d="M0 0 C0.71417084 0.00182281 1.42834167 0.00364563 2.16415405 0.00552368 C14.2453593 0.05711327 25.96509568 0.84742468 37.8125 3.3125 C39.03718994 3.56193359 39.03718994 3.56193359 40.28662109 3.81640625 C89.75536132 14.2247911 132.37249914 44.39504863 160.109375 86.36791992 C187.8231771 129.54976275 196.25067308 181.27687178 185.78125 231.375 C175.08869912 279.2235828 145.16298504 322.22955786 103.96875 348.8359375 C86.12064181 360.00150126 67.02771276 368.43770652 46.625 373.625 C45.67625 373.86750488 44.7275 374.11000977 43.75 374.35986328 C29.48660474 377.8110781 15.4773495 378.72266456 0.875 378.6875 C0.02110687 378.68695618 -0.83278625 378.68641235 -1.71255493 378.68585205 C-53.69361857 378.53418526 -99.31370189 357.09569393 -136.4375 321.375 C-142.22040308 315.43890744 -147.28522984 308.98230395 -152.1875 302.3125 C-152.60499512 301.74466797 -153.02249023 301.17683594 -153.45263672 300.59179688 C-175.92652704 269.53307658 -187.46989174 233.43502472 -189.1875 195.3125 C-189.25130859 193.92417969 -189.25130859 193.92417969 -189.31640625 192.5078125 C-190.45535418 140.11620764 -168.94561115 91.83465838 -133.17578125 54.36328125 C-129.68956214 50.77283385 -126.10465755 47.4303846 -122.1875 44.3125 C-121.259375 43.55839844 -120.33125 42.80429688 -119.375 42.02734375 C-106.40586497 31.65772662 -92.29763611 23.17606398 -77.1875 16.3125 C-76.44580566 15.97476563 -75.70411133 15.63703125 -74.93994141 15.2890625 C-65.00943991 10.85420265 -55.0077684 7.50489736 -44.4375 4.9375 C-43.45724854 4.6988623 -42.47699707 4.46022461 -41.46704102 4.21435547 C-27.71157359 1.06706265 -14.07052633 -0.07544241 0 0 Z " fill="#1447E6" transform="translate(804.1875,2372.6875)"/>
<path d="M0 0 C17.96920268 15.82816934 32.32713276 34.2091972 43.27490234 55.51367188 C43.79044678 56.50004639 43.79044678 56.50004639 44.31640625 57.50634766 C66.63851107 100.65264036 70.11586118 153.24027225 55.68920898 199.42651367 C48.94812565 220.01908127 39.51953694 239.32196074 26.27490234 256.51367188 C25.62005859 257.37992188 24.96521484 258.24617188 24.29052734 259.13867188 C-6.92360463 299.38168499 -52.41498352 324.39663215 -102.74462891 331.09960938 C-152.97307042 336.2080485 -204.71101948 323.05987031 -244.16259766 290.95117188 C-257.43590537 279.87633214 -269.8442396 267.74281451 -279.72509766 253.51367188 C-280.45599609 252.46566406 -281.18689453 251.41765625 -281.93994141 250.33789062 C-297.47418574 227.10477651 -307.66501226 201.97884126 -312.72509766 174.51367188 C-312.8564209 173.81064941 -312.98774414 173.10762695 -313.12304688 172.38330078 C-321.43375752 125.23487921 -309.02735149 74.29020107 -282.22509766 35.01367188 C-265.25525328 10.92869536 -243.6331939 -9.34665526 -217.72509766 -23.48632812 C-217.09812988 -23.83002441 -216.47116211 -24.1737207 -215.82519531 -24.52783203 C-199.42215178 -33.3973793 -181.90868087 -39.45855855 -163.72509766 -43.48632812 C-162.63648438 -43.73406982 -162.63648438 -43.73406982 -161.52587891 -43.98681641 C-104.49217376 -56.36374479 -43.53808892 -37.51201321 0 0 Z " fill="#1447E6" transform="translate(1931.72509765625,1420.486328125)"/>
<path d="M0 0 C0.72882385 -0.00067474 1.45764771 -0.00134949 2.20855713 -0.00204468 C50.28488143 0.06837127 95.98159121 18.64520501 130.70800781 51.83789062 C131.6891484 52.7743456 132.67545247 53.70542231 133.66699219 54.63085938 C158.94486915 78.25909242 176.36439353 110.4718312 184.5 143.9375 C184.74250488 144.93386475 184.98500977 145.93022949 185.23486328 146.95678711 C188.46390945 160.94209412 189.57065822 174.58428018 189.5 188.875 C189.49784485 189.66336243 189.4956897 190.45172485 189.49346924 191.26397705 C189.26466017 243.57925349 167.99946083 289.43286132 131.78222656 326.67089844 C127.862355 330.55236342 123.55785097 333.89857917 119.1875 337.25 C118.2284375 338.03632813 117.269375 338.82265625 116.28125 339.6328125 C87.2104364 363.0509679 48.19060826 378.22463706 10.69921875 378.453125 C9.92232697 378.46013931 9.14543518 378.46715363 8.34500122 378.47438049 C5.854941 378.49176732 3.36511867 378.49823173 0.875 378.5 C0.023685 378.50067474 -0.82763 378.50134949 -1.70474243 378.50204468 C-14.30571474 378.4861664 -26.48412181 378.08385345 -38.8125 375.25 C-39.57369141 375.08371094 -40.33488281 374.91742187 -41.11914062 374.74609375 C-80.50966256 365.9637313 -119.37972105 344.06974379 -144.8125 312.25 C-145.56789063 311.32058594 -146.32328125 310.39117188 -147.1015625 309.43359375 C-153.72576701 301.14521224 -159.43642057 292.38978604 -164.8125 283.25 C-165.17085937 282.64462402 -165.52921875 282.03924805 -165.8984375 281.41552734 C-182.04348124 253.77624428 -189.27158513 221.69145294 -189.1875 189.875 C-189.18695618 189.09374756 -189.18641235 188.31249512 -189.18585205 187.50756836 C-189.04959317 144.6416153 -174.38433501 100.72952825 -145.8125 68.25 C-145.11769531 67.445625 -144.42289063 66.64125 -143.70703125 65.8125 C-141.45139808 63.24872022 -139.14693283 60.74226398 -136.8125 58.25 C-136.35423828 57.75773926 -135.89597656 57.26547852 -135.42382812 56.75830078 C-100.45422671 19.50151096 -50.6723412 0.04234058 0 0 Z " fill="#1447E6" transform="translate(4135.8125,2372.75)"/>
</svg>
